<svg xmlns="http://www.w3.org/2000/svg" width="32" height="32" viewBox="0 0 32 32">
  <rect width="32" height="32" rx="7" ry="7" fill="#ffffff"/>
  <g transform="translate(5.12, 5.12) scale(0.0435)">
    <g transform="translate(-76, -54)">
      <path fill="#000" d="M 167.9 308.1 C 124.2 308.1 88.8 272.7 88.8 229 L 88.8 166 C 88.8 160.1 93.5 155.4 99.4 155.4 L 140.1 155.4 C 145.9 155.4 150.7 160.1 150.7 166 L 150.7 230 C 150.7 239 157.9 246.3 166.9 246.3 L 214.9 246.3 C 219.6 246.3 223.4 242.5 223.4 237.8 L 223.4 227 C 223.4 222.3 219.6 218.5 214.9 218.5 L 206.9 218.5 C 203.7 218.5 200.7 216.9 199 214.3 L 171.6 173.1 C 166.9 166.1 172 156.6 180.4 156.6 L 274.7 156.6 C 280.5 156.6 285.3 161.4 285.3 167.2 L 285.3 297.5 C 285.3 303.4 280.5 308.1 274.7 308.1 Z"/>
      <path fill="#fbb03b" d="M 149.4 124.1 L 122.1 83.4 C 117.3 76.4 122.4 66.9 130.8 66.9 L 245.7 66.9 C 249.2 66.9 252.5 68.7 254.5 71.6 L 281.6 112.3 C 286.3 119.3 281.2 128.8 272.7 128.8 L 158.2 128.8 C 154.7 128.8 151.4 127 149.4 124.1 Z"/>
    </g>
  </g>
</svg>