<svg xmlns="http://www.w3.org/2000/svg" width="500" viewBox="76 54 222 267" height="500" preserveAspectRatio="xMidYMid meet" version="1.0"><defs><clipPath id="aa2286bc85"><path d="M 88.753906 155 L 286 155 L 286 308.394531 L 88.753906 308.394531 Z M 88.753906 155 " clip-rule="nonzero"/></clipPath><clipPath id="f045d6b4f1"><path d="M 120 66.894531 L 284 66.894531 L 284 129 L 120 129 Z M 120 66.894531 " clip-rule="nonzero"/></clipPath></defs><g clip-path="url(#aa2286bc85)"><path fill="#ffffff" d="M 167.925781 308.125 C 124.226562 308.125 88.796875 272.695312 88.796875 228.992188 L 88.796875 165.96875 C 88.796875 160.113281 93.542969 155.371094 99.394531 155.371094 L 140.066406 155.371094 C 145.917969 155.371094 150.664062 160.113281 150.664062 165.96875 L 150.664062 230.015625 C 150.664062 238.988281 157.9375 246.261719 166.910156 246.261719 L 214.941406 246.261719 C 219.625 246.261719 223.417969 242.464844 223.417969 237.78125 L 223.417969 226.976562 C 223.417969 222.292969 219.625 218.5 214.941406 218.5 L 206.871094 218.5 C 203.695312 218.5 200.734375 216.910156 198.976562 214.265625 L 171.609375 173.101562 C 166.925781 166.058594 171.972656 156.640625 180.429688 156.640625 L 274.691406 156.636719 C 280.542969 156.636719 285.285156 161.378906 285.285156 167.234375 L 285.285156 297.527344 C 285.285156 303.378906 280.542969 308.125 274.691406 308.125 Z M 167.925781 308.125 " fill-opacity="1" fill-rule="nonzero"/></g><g clip-path="url(#f045d6b4f1)"><path fill="#fbb03b" d="M 149.433594 124.097656 L 122.054688 83.429688 C 117.3125 76.390625 122.359375 66.914062 130.84375 66.914062 L 245.671875 66.914062 C 249.214844 66.914062 252.527344 68.6875 254.492188 71.640625 L 281.5625 112.304688 C 286.25 119.347656 281.203125 128.773438 272.742188 128.773438 L 158.226562 128.773438 C 154.699219 128.773438 151.40625 127.019531 149.433594 124.097656 Z M 149.433594 124.097656 " fill-opacity="1" fill-rule="nonzero"/></g></svg>